<svg id="gear" data-name="gear" xmlns="http://www.w3.org/2000/svg" viewBox="0 0 240 240"><title>gear</title><path d="M231,100.63a4.6,4.6,0,0,0-3.06-1.79l-26.71-4.08a88,88,0,0,0-6-14.31q2.63-3.58,7.87-10.29t7.44-9.72a5.62,5.62,0,0,0,1.16-3.36,4.71,4.71,0,0,0-1-3.2q-5.26-7.44-24.08-24.82A5.64,5.64,0,0,0,183,27.6a4.74,4.74,0,0,0-3.58,1.31L158.74,44.52a90.23,90.23,0,0,0-13.13-5.37l-4.08-26.84a4.33,4.33,0,0,0-1.68-3.13,5.51,5.51,0,0,0-3.58-1.23H103.85A4.92,4.92,0,0,0,98.59,12a238.36,238.36,0,0,0-4.24,27.14,83.52,83.52,0,0,0-13.28,5.55L60.91,29a6.21,6.21,0,0,0-3.79-1.47q-3.2,0-13.79,10.43A145.47,145.47,0,0,0,29,53.68,6.16,6.16,0,0,0,27.7,57a5.48,5.48,0,0,0,1.47,3.58Q39,72.45,44.79,80.77A72,72,0,0,0,39.1,94.21L11.94,98.29a4.4,4.4,0,0,0-2.77,1.9A5.62,5.62,0,0,0,8,103.55V136a5.51,5.51,0,0,0,1.16,3.44,4.6,4.6,0,0,0,3.06,1.79l26.71,3.94a72.1,72.1,0,0,0,6,14.44q-2.63,3.58-7.89,10.29t-7.44,9.72a5.64,5.64,0,0,0-1.16,3.36,5.71,5.71,0,0,0,1,3.35q5.69,7.89,24.08,24.53a5,5,0,0,0,3.58,1.61,5.26,5.26,0,0,0,3.58-1.31l20.58-15.62a90.55,90.55,0,0,0,13.13,5.37l4.08,26.84a4.35,4.35,0,0,0,1.68,3.13,5.49,5.49,0,0,0,3.58,1.23h32.4a4.92,4.92,0,0,0,5.26-4.08,239.17,239.17,0,0,0,4.22-27.14,83.36,83.36,0,0,0,13.28-5.55L179,211a7.16,7.16,0,0,0,3.79,1.31q3.2,0,13.72-10.36A147.37,147.37,0,0,0,211,186.23a4.87,4.87,0,0,0,1.31-3.35,5.62,5.62,0,0,0-1.47-3.58q-10.5-12.85-15.62-20.15a93.58,93.58,0,0,0,5.69-13.28l27-4.08a4.46,4.46,0,0,0,2.92-1.9,5.64,5.64,0,0,0,1.16-3.36V104.07A5.49,5.49,0,0,0,231,100.63ZM146.47,146.4a37.36,37.36,0,1,1,11-26.43,36,36,0,0,1-10.93,26.43Z"/></svg>
