<svg data-name="Layer 1" xmlns="http://www.w3.org/2000/svg" viewBox="0 0 240 240"><title>hexagon-up</title><path d="M219.5 56.71l-96-55.5a9 9 0 0 0-9 0l-96 55.5A9 9 0 0 0 14 64.5v111a9 9 0 0 0 4.5 7.79l96 55.5a9 9 0 0 0 9 0l96-55.5a9 9 0 0 0 4.5-7.79v-111a9 9 0 0 0-4.5-7.79zm-55.43 71.37a10 10 0 0 1-14.14 0L130 108.15V156a10 10 0 0 1-20 0v-47.85l-19.93 19.93a10 10 0 0 1-14.14-14.14L112.87 77l.06-.07c.18-.18.37-.34.56-.51l.16-.14c.17-.14.35-.27.53-.39l.26-.19c.17-.12.35-.22.53-.32l.31-.19.51-.25.38-.18.48-.18.44-.15.47-.12.48-.12.52-.08.44-.11h1c.33 0 .66 0 1 .05l.38.05.6.09.42.1.53.14.39.14.54.2.33.15c.19.09.38.17.56.27l.27.16c.19.11.39.22.57.35l.22.16c.19.14.39.27.57.43l.1.09c.21.18.42.36.62.56l.06.07 36.94 36.94a10 10 0 0 1-.03 14.13z"/></svg>