<svg xmlns="http://www.w3.org/2000/svg" viewBox="0 0 240 240"><title>hexagon-resume</title><path d="M220.5 56.71l-96-55.5a9 9 0 0 0-9 0l-96 55.5A9 9 0 0 0 15 64.5v111a9 9 0 0 0 4.5 7.79l96 55.5a9 9 0 0 0 9 0l96-55.5a9 9 0 0 0 4.5-7.79v-111a9 9 0 0 0-4.5-7.79zm-59.93 72.42C155.93 148.49 140 162 119.78 162A41.91 41.91 0 0 1 91 150.41l-7 7.05a3.48 3.48 0 0 1-2.46 1A3.52 3.52 0 0 1 78 155v-24.5a3.52 3.52 0 0 1 3.5-3.5H106a3.52 3.52 0 0 1 3.5 3.5 3.48 3.48 0 0 1-1 2.46l-7.5 7.49a27.89 27.89 0 0 0 42.88-5.8 44.47 44.47 0 0 0 2.9-6.4 1.69 1.69 0 0 1 1.64-1.26h10.5a1.76 1.76 0 0 1 1.75 1.75.94.94 0 0 1-.09.39zM162 109.5a3.52 3.52 0 0 1-3.5 3.5H134a3.52 3.52 0 0 1-3.5-3.5 3.48 3.48 0 0 1 1-2.46l7.55-7.55a28 28 0 0 0-42.93 5.85 44.47 44.47 0 0 0-2.9 6.4 1.69 1.69 0 0 1-1.6 1.26H80.73a1.76 1.76 0 0 1-1.73-1.75v-.38C83.69 91.45 99.82 78 120 78a42.46 42.46 0 0 1 28.93 11.59l7.07-7.05a3.48 3.48 0 0 1 2.46-1A3.52 3.52 0 0 1 162 85z"/></svg>