<svg id="info" data-name="info" xmlns="http://www.w3.org/2000/svg" viewBox="0 0 240 240"><title>info</title><path d="M120,240a9,9,0,0,1-4.5-1.21l-96-55.5A9,9,0,0,1,15,175.5V64.5a9,9,0,0,1,4.5-7.79l96-55.5a9,9,0,0,1,9,0l96,55.5A9,9,0,0,1,225,64.5v111a9,9,0,0,1-4.5,7.79l-96,55.5A9,9,0,0,1,120,240ZM33,170.31l87,50.3,87-50.3V69.69L120,19.4,33,69.69Z"/><path d="M120,172a12,12,0,0,1-12-12V118a12,12,0,0,1,24,0v42A12,12,0,0,1,120,172Z"/><path d="M120,93h-1.1a14,14,0,0,1,0-28H120a14,14,0,0,1,0,28Z"/></svg>
