<svg id="Layer_1" data-name="Layer 1" xmlns="http://www.w3.org/2000/svg" viewBox="0 0 240 240"><title>info</title><path d="M120,240a9,9,0,0,1-4.5-1.21l-96-55.5A9,9,0,0,1,15,175.5V64.5a9,9,0,0,1,4.5-7.79l96-55.5a9,9,0,0,1,9,0l96,55.5A9,9,0,0,1,225,64.5v111a9,9,0,0,1-4.5,7.79l-96,55.5A9,9,0,0,1,120,240ZM33,170.31l87,50.3,87-50.3V69.69L120,19.4,33,69.69Z"/><path d="M120,169a9,9,0,0,1-9-9V118a9,9,0,0,1,18,0v42A9,9,0,0,1,120,169Z"/><path d="M120,96a9,9,0,0,1-9-9V75a9,9,0,0,1,18,0V87A9,9,0,0,1,120,96Z"/></svg>